<?xml version="1.0" encoding="utf-8"?>
<!-- Generator: Adobe Illustrator 21.0.0, SVG Export Plug-In . SVG Version: 6.00 Build 0)  -->
<svg version="1.1" xmlns="http://www.w3.org/2000/svg" xmlns:xlink="http://www.w3.org/1999/xlink" x="0px" y="0px"
	 viewBox="0 0 1024 1024" style="enable-background:new 0 0 1024 1024;" xml:space="preserve">
<g id="CTF-BR_x7B_TheZakMan_x7D_">
</g>
<g id="Texto">
	<g>
		<polygon points="138.5,550.4 233.8,552.5 267,583.6 267,633.3 260.8,645.7 219.3,645.7 219.3,614.6 213.1,608.4 188.2,608.4 
			179.9,614.6 177.9,722.4 213.1,722.4 213.1,705.9 194.5,705.9 194.5,668.5 267,666.5 267,703.8 254.6,703.8 256.6,741.1 
			240.1,766 144.7,766 115.7,739 113.6,585.6 		"/>
	</g>
	<g>
		<polygon points="260.8,523.4 320.9,523.4 320.9,546.2 304.3,546.2 304.3,606.4 277.4,606.4 277.4,546.2 260.8,546.2 		"/>
	</g>
	<g>
		<polygon points="329.2,523.4 329.2,606.4 356.1,606.4 356.1,573.2 364.4,573.2 364.4,608.4 393.5,608.4 393.5,523.4 364.4,523.4 
			364.4,556.6 356.1,556.6 356.1,523.4 		"/>
	</g>
	<g>
		<path d="M395.5,637.4l-18.7-18.7l-64.3-4.1c0,0-12.4,14.5-24.9,22.8c0,8.3-4.1,85-8.3,99.5c0,2.1,18.7,29,18.7,29l76.7,4.1
			l22.8-24.9L395.5,637.4z M325,724.5l6.2-66.3l20.7-2.1l4.1,66.3L325,724.5z"/>
	</g>
	<g>
		<path d="M517.8,637.4c0,0-12.4-12.4-18.7-20.7c0,2.1-64.3-2.1-64.3-2.1s-12.4,14.5-24.9,22.8c0,8.3-4.1,85-8.3,99.5
			c0,2.1,16.6,29,16.6,29l78.8,4.1l22.8-24.9L517.8,637.4z M447.3,722.4l6.2-66.3h20.7v68.4L447.3,722.4z"/>
	</g>
	<g>
		<path d="M526.1,616.7c0,0,10.4,132.7,2.1,149.3l45.6-2.1l-2.1-72.6c0,0,33.2,70.5,31.1,78.8h39.4c0,0-2.1-126.4,4.1-157.5h-41.5
			l2.1,70.5c0,0-22.8-29-31.1-68.4L526.1,616.7z"/>
	</g>
	<g>
		<polygon points="665,656.1 665,766 704.4,766 700.2,656.1 		"/>
	</g>
	<g>
		<path d="M766.6,716.2h4.1v6.2l-26.9,4.1v-31.1l43.5-16.6l2.1-39.4l-14.5-20.7h-39.4l-22.8,16.6l2.1,111.9l18.7,16.6l43.5-2.1
			l12.4-8.3v-56l-22.8,8.3V716.2z M745.8,643.7l16.6-4.1l6.2,24.9l-24.9,8.3L745.8,643.7z"/>
	</g>
	<g>
		<path d="M429,580.1h2.4v3.6l-15.7,2.4v-18.1l25.3-9.6l1.2-22.9l-8.4-12.1h-22.9l-13.3,9.6l1.2,65.1l10.9,9.6l25.3-1.2l7.2-4.8
			v-32.6l-13.3,4.8V580.1z M416.9,537.9l9.6-1.5l3.6,13.6l-14.5,4.8L416.9,537.9z"/>
	</g>
	<g>
		<polygon points="801.8,631.2 801.8,693.4 853.6,705.9 853.6,736.9 847.4,736.9 847.4,714.1 799.7,714.1 799.7,751.5 820.5,766 
			874.4,766 901.3,751.5 901.3,691.3 849.5,678.9 849.5,645.7 857.8,645.7 857.8,670.6 901.3,670.6 901.3,631.2 876.4,618.8 
			814.3,618.8 		"/>
	</g>
	<g>
		<g>
			<path d="M681.2,628.5c-0.1,0-0.3,0-0.4,0.1c-0.5,0.5-2.1,1.9-1.8,3.8c0.2,1.3,5.4,0.3,4.8-1.2
				C683.1,629.4,681.7,628.7,681.2,628.5z"/>
		</g>
		<g>
			<path d="M686.7,621.9c-1.7,0.2-2.5,1.3-2.9,2.7c-0.4,1.2,1.7,2.2,3.4,1.9c1.7-0.2,3-1.4,2.9-2.7
				C690,622.5,688.5,621.6,686.7,621.9z"/>
		</g>
		<g>
			<path d="M673.6,624.3c-2,0.2-3.4,1.6-3.2,2.9c0.2,1.4,1.9,2.3,3.8,2.1c2-0.2,3.9-1.7,3.2-2.9C676.9,625.3,675.6,624,673.6,624.3z
				"/>
		</g>
		<g>
			<path d="M692,602.2l-33.2,6.2l-2.1,24.9l8.3,12.4l35.2-4.1l2.1-20.7L692,602.2z M693.5,625.1c-0.6,1.5-2.2,1.8-2.8,4.5
				c-0.5,1.9,1.2,5.8-0.2,6.4c-1.4,0.7-2.2-0.9-2.5-0.8c-0.4,0.1,0.6,1.4-0.6,1.7c-1.2,0.4-2.1-1.2-2.1-1.2s0.1,1.5-1.1,1.7
				c-1.2,0.1-1.7-1.1-1.7-1.1s0.1,1.2-1.1,1.3c-1.2,0.1-1.1-1-1.3-0.9c-0.2,0.1,0.3,1.1-1.2,1.4s-1.3-1.5-1.6-1.5
				c-0.3,0,0.7,1.3-1.7,1.7c-2.4,0.4-0.3-3.5-2.3-5.1c-1.4-1.1-4.3-0.1-5-0.9c-1.1-1.2-3-4.4-3.8-7.6c-0.7-2.7-1.9-5.7,0.1-7.7
				c2.1-2.1,8.6-6.3,14.3-6.3c11.5,0,12.4,2.6,13.2,4.6C693,617.4,694.7,622.2,693.5,625.1z"/>
		</g>
	</g>
</g>
<g id="Espada">
	<g>
		<g>
			<path d="M587.3,770.9l-0.8,0.9c-0.2,1.4-0.1,2.3-0.1,2.4c-0.1-0.5-0.2-1.1-0.4-1.9l-5.7,2c5.9,2.2,11.9,4.4,17.9,6.5L587.3,770.9
				z"/>
		</g>
		<g>
			<path d="M679.8,803c13,0.9,22.1-6.2,30.7-15c0.8-0.8,1.4-1.9,1-3.3c-1.2-1.7-3-1.6-4.8-1.9c-0.8-0.1-1.7-0.2-2.5-0.3H665
				l-9.4-5.3l-13.4,9.4h-26.6c5.3,1.7,10.6,3.4,15.9,5.1C647.3,796.7,663.2,801.8,679.8,803z"/>
		</g>
		<g>
			<path d="M690.4,830.8c-1.2-8.3-5.2-13-13-14.9c-37.8-9-74.9-20.6-111.2-35.1l-37.2,1.7l-8.6-13.2l-11,12l-13.1,5.4l-3.7-0.2
				C526.1,800.4,560,813,594.9,823c27.5,7.9,54.9,16.6,83,21.8C692.5,847.5,692.7,847.5,690.4,830.8z"/>
		</g>
		<g>
			<path d="M156,504.6c6.4,10.4,13.2,20.4,20.4,30.1l57.7,1.3l10,4.1v-9.1c-46.2-45.2-91.7-91.1-126.4-147.3
				c-1.3-2.1-2.6-4.5-5.1-5.8c-2,11-1.6,21.5,1.4,31.8C123.8,443.4,138,475.1,156,504.6z"/>
		</g>
	</g>
	<g>
		<path d="M752.4,801.4c7.5-6.2,12.9-14.2,17.6-22.7l-35.8,1.7l-1.6-0.6c-9.1,10.4-19.9,18.3-31.9,25c-6,3.3-8.2,7.9-5,13.4
			c5.8,9.9,6.9,19.9,4.1,30.8c-0.2,0.6,0,1.4,0,2c-0.3,18.6-11.1,29.7-28.8,29.6c-4.5,0-8.7-0.9-12.7-2.9c-3.8-1.9-7.8-3.3-12-3.8
			c-4-0.5-6.7,1-7.8,5.1c-1.2,4.8-2.1,9.6-3.1,14.5c-0.7,3.2,0.6,5.7,3.2,7.4c4.8,3.2,9.9,5.9,15.7,6.5c6.8,0.7,13.6,1,19.9,1
			c23.9,1.7,21.5-0.1,37.6-8.2c4.4-2.2,7.7-5.8,9.7-10.4c9.4-21.4,18.6-42.9,21.4-66.6C743.8,814.9,745.8,807,752.4,801.4z"/>
	</g>
	<g>
		<path d="M716.4,612.1l9.3-6.8l9.8-3.2h39.4l5.5,2.8c9.6-10.5,19.1-21.2,28.7-31.8c45.2-50.2,74.1-109.9,92.9-175.6
			c3-10.5,3.3-21.4,3.6-33.2c-1.4,0.8-2,0.9-2.2,1.2c-1,1.5-1.9,3.2-2.8,4.8c-13.1,23.2-25.3,47-43.2,66.8
			c-12.2,13.5-24,27.4-35.8,41.3c-25.1,29.4-50.8,58.2-78.6,84.7c-11.6,11.1-23.6,21.7-35.7,32L716.4,612.1z"/>
	</g>
	<g>
		<path d="M405.1,873.8c-5.9,0.1-11.5,1.7-17.2,3.1c-4.7,1.1-9.8,2.2-13.9-1.6c-5.6-5.2-9.4-11.7-10.4-19.7
			c-1.2-9.6,0.6-18.7,3.4-27.7c2.3-7.6,1.3-13.1-2.8-15.8c-10.5-7.1-18.5-16.1-24-27.3l-39.3-2.1c1.3,4.2,2.3,8.4,2.8,12.9
			c1.4,11.8,2.9,23.8,7.5,34.8c4.7,11.1,9.5,22,14.2,33.1c3,7.1,7.2,13.4,12.4,18.8c13,13.7,26.8,25.7,43.6,24.1
			c12.9,0,22.3-1.9,31.5-4.6c3.6-1.1,7-2.8,8.1-7.3C423.7,883.3,416.3,873.5,405.1,873.8z"/>
	</g>
	<g>
		<path d="M417.5,782.5l-13.3-7.9c0,0,0-0.1,0-0.1c-5.7,2.1-11.3,4.4-16.9,6.5l-0.2,0.2l-13.1,5.4l-2-0.1c-0.8,0.3-1.7,0.6-2.5,0.8
			c-2.1,0.7-5.5,1.2-5.6,4.2c-0.1,3.4,3.1,4.9,5.6,6.5c0.4,0.3,0.9,0.4,1.4,0.6c11.2,3.3,22.2,5.2,33.9,1.2
			c12.8-4.4,24.6-11.2,37.1-16.1L417.5,782.5z"/>
	</g>
	<g>
		<path d="M493.4,797.6c-4.9-3.8-10.5-6.1-16-8.4c-6-2.5-11.8-2.7-17.9,0.1c-5.6,2.6-11.5,4.7-17.3,6.8c-7.8,2.8-15.4,6.3-23.7,7.3
			c-15.3,1.8-27.1,10.7-37.1,22.3c-5.1,5.9-4.1,10.1,2,15.1c2.9,2.4,5.9,2.2,9.2,1.1c14.4-4.7,28.8-9.3,43.1-14.2
			c19.1-6.6,36.2-18.3,55.7-23.9c1.7-0.5,3.3-1.4,4-3.2C495.3,799,494.3,798.3,493.4,797.6z"/>
	</g>
	<g>
		<path d="M795.5,803.8c9.7-0.9,19.4-2,29.1-0.6c4.6,0.7,6,3.3,5.4,7.8c-0.8,5.2-1,10.5-2.3,15.7c-3,11.9-8.3,17.3-19.9,17.9
			c-15.5,0.8-31.1,0.9-46.6,1.2c-4.4,0.1-7.2-2.2-8.9-6.5c-3.5-8.5-3.4-16.2,3-23.2c1.4-1.5,2.7-3,3.7-4.7c3.9-6.5,9.4-8.5,16.7-7.7
			C782.2,804.4,788.9,803.8,795.5,803.8z"/>
	</g>
	<g>
		<path d="M257.4,857c-6.6,0-12.4,0.2-18.2,0c-5-0.2-6-1.6-4.8-6.8c1.6-6.8,3.7-13.4,6.2-19.9c4-10.6,11.3-16.2,22-17.2
			c8.4-0.8,16.7-2.1,25.1-3.1c8.4-1,10.1,0.2,14.1,8.3c3.9,7.9,5.6,16.2,5.7,25.1c0.1,4.8-2,7.8-6.2,8.3
			C286.4,853.4,272,859.4,257.4,857z"/>
	</g>
	<g>
		<path d="M201.9,879.6c-6-0.4-13.1-1.8-19.9-4.9c-3.6-1.7-6-4.5-7.7-8.1c-1.2-2.4-2-5.1-3.2-7.4c-4.9-9-2.5-16.4,3.6-23.7
			c7.6-9.1,17.1-15.3,27.2-20.2c6.3-3.1,14.2-4.2,20,0.7c6.3,5.4,6.6,14,6.3,22.2c-0.1,2-0.7,4-1.3,5.9c-2.9,8.7-6,10.4-14.6,9.3
			c-5.8-0.7-11.4-3-17.3-2.1c-3,0.4-5.8,0.8-6.4,4.9c-0.5,3.8,1.1,5.4,4.3,7.3c8.9,5.3,17,3.6,25.3-1.1c0.8-0.5,1.7-1.1,2.6-1.2
			c2.7-0.2,5.7-0.8,7.7,1.7c1.9,2.4,0.1,4.8-0.6,7.2c-1.9,5.8-6.1,8.1-11.5,8.5C212,878.8,207.6,879.1,201.9,879.6z"/>
	</g>
	<g>
		<path d="M856.8,861.1c-6.3-0.6-11.7-3.4-15.7-8c-6.3-7.1-7-20.2-2.1-28.2c2-3.1,4.2-6.2,5.9-9.4c2.4-4.8,0.9-7.3-4.6-7.5
			c-3.5-0.1-6.1-0.8-7.1-4.4c-1-3.7,1.6-5.1,4.1-6.7c4.6-2.9,9.2-3,14.8-2.2c9.9,1.4,18.7,4.2,26.7,10.1c4.8,3.6,7.4,7.7,7.4,13.5
			c0,4,0.3,8,0.6,12c0.2,2.3-0.5,4.4-2.1,6c-6.8,6.4-12.2,14.1-18.7,20.8C863.5,859.6,860.6,861.3,856.8,861.1z"/>
	</g>
	<g>
		<path d="M833.7,873.1c-7.1-0.7-13.5-4.3-18.3-10.6c-1.8-2.3-2.1-4.9-0.7-7.6c1.3-2.6,3.8-3.2,6.5-3.3c8.5-0.3,17.6,6.6,19.5,14.6
			C841.7,870.8,839.5,873.3,833.7,873.1z"/>
	</g>
</g>
<g id="Caveira">
	<g>
		<path d="M538,482.5"/>
	</g>
	<g>
		<path d="M526.2,494.1"/>
	</g>
	<g>
		<path d="M408.4,170.7c-9,7.9-17.1,15.5-23.8,24.5c-1.7,2.3-1.8,5.1-1.8,7.8c-0.1,7.9-0.2,15.8-0.2,23.8c0,4-1.9,7.5-3.4,11.2
			c-6.2,15.2-16.3,29.4-13.8,47c1.2,8.9,0.8,18,1.1,27c0.1,3.1,0.4,6.2,0,9.2c-0.4,2.8,0.8,7.3-3.4,7.6c-4.3,0.3-8.5-2-10.2-6.4
			c-0.5-1.2-0.8-2.4-0.9-3.7c-0.5-20.8-2.3-41.7-1.9-62.5c0.3-18.7,3.5-37.8,9.2-55.8c5.9-18.8,18.7-34.4,33.7-48
			c1.4-1.2,3-2.3,4.2-3.6c11.2-11.8,25.1-18.4,41.4-22.1c11.9-2.7,22.8-9.2,35.3-10.4c34.7-3.3,69.4-6,103.8,2.4
			c8.8,2.1,16.7,5.9,23.7,11.5c11.8,9.5,22.7,19.7,31.7,31.7c8.4,11.1,17.1,22.1,25.5,33.2c6.9,9,9.9,19.2,10,30.3
			c0.2,24-2.9,47.7-8.2,71.2c-1.8,8.1-6.3,15-12.8,20.6c-1.9,1.7-3.6,3.8-7.2,3.6c-2.2-2.9-1.5-6.2-1.1-9.6c1.4-9.6,0.4-19-2.9-28.2
			c-0.7-2-1.4-4.7-4.3-4.3c-3.1,0.5-2.3,3.4-2.1,5.4c0.9,9.2-1.4,18.3-0.9,27.5c0.2,4.5,0.5,9,1.8,13.3c1.9,6,5,10.4,12.3,11.9
			c9.1,1.9,10.7,5.4,8.2,13.8c-1.5,4.8-3.3,9.5-4.2,14.5c-1,5.5-5.9,7.9-10.8,9.4c-10.7,3.2-21.1,7.4-32.5,8
			c-6.5,0.3-12.3,3-16.9,7.2c-9,8.4-17.1,17.4-21,29.1c-1.1,3.4-3.6,5.5-6,7.7c-3.6,3.2-4.5,6.6-2.5,11.1c2.1,4.8,3.5,9.9,4.8,14.9
			c0.9,3.5,0.5,7.1-4.1,8.2c-4.3,1-8.5,0.7-10.6-3.9c-2.9-6.6-2.4-13.4-1.5-20.2c0.3-2.6,0.6-5.1-0.8-7.3c-1.1-1.8-2.8-3-5.2-2.5
			c-2.4,0.6-2.4,2.5-2.5,4.3c-0.1,3.1,1.1,6,2,8.9c1,3.3,2.1,6.6,2.5,9.9c0.5,3.8-0.9,7.6-5.1,8.7c-4.3,1.1-9.2,1.8-12.8-2
			c-3-3.2-1.7-12.8,2.2-16.5c4.6-4.3-0.1-7.7-1.3-11.2c-1.2-3.4-4.9-1.7-6.9-0.7c-4.6,2.4-4.6,7.3-2.3,10.4
			c5.2,7.2,0.7,12.6-2.5,18.4c-1.7,3.1-4.7,3.3-7.9,2.4c-3.2-0.9-3.2-3.3-2.7-5.6c1-4.2,0.5-8.2-0.5-12.3c-0.7-2.8-1.4-5.6,0-8.5
			c1.4-2.9,2.2-5.5-2.3-6.7c-4.3-1.1-8.7,0.7-9.6,4.3c-0.9,3.6-0.1,6.7,2.5,9.5c3.7,4,3.6,17-0.1,20.6c-2.3,2.2-5.6,2.2-8.6,1.6
			c-3.6-0.7-6.2-3-6.9-6.4c-0.9-4.5-1.2-8.9,1.9-13c2.5-3.3,3.7-7,4.7-10.9c0.9-3.5,0-5.6-4.4-5.3c-4.9,0.4-9.9,0.5-14.8,0.9
			c-4,0.3-7-1-9.2-4.2c-4.9-7.1-9.9-14.1-14.7-21.2c-4.8-7.1-11.2-12.7-18.7-17.2c-6.9-4.1-13.7-3.7-20.9,0.4
			c-10.2,5.8-21.2,4.1-32,1.3c-1-0.3-2.1-1.1-2.6-2c-4.3-7.8-9.8-15.1-12.4-23.6c-1.9-6.3-0.7-7.7,6.4-8.9c4.3-0.7,10-7.8,10.1-13.2
			c0.1-4.3,1.1-8.1,3.5-11.7c1.2-1.9,2-4.1,1-6.2c-5.9-12.1-3.6-24.7-2.9-37.2c0.3-5.9,1.2-11.8,2.2-17.7c1.4-7.8,3.1-15.5,9.2-21.6
			c4.2-4.2,6-9.5,6.2-15.3c0-1.4,0.1-2.9,0.2-4.3c0.7-27.5-2.4-21.5,12.7-40.9C407.2,178.6,407.5,176.7,408.4,170.7z M401.6,306.1
			c-0.3,10.7,3.2,17.8,9.6,23.7c3,2.8,6.4,5.1,9.4,7.8c8.2,7.4,17.8,7.6,27.9,4.8c4.2-1.2,8.1-3,12.3-4.1
			c6.3-1.6,10.8-5.2,13.8-10.4c4.5-7.9,9.5-15.6,13.3-23.8c3.5-7.5,6.4-15.8,3.3-24c-4.6-12.2-25.9-21.9-39.4-19.7
			c-12.7,2.1-22.6,8.4-32.6,15.3C407.5,284,403.6,295.5,401.6,306.1z M570.6,261.2c-6.6-0.6-13.6,0.5-20.1,3.1
			c-18.5,7.4-28.9,20.5-18.4,38.8c1.2,2,2.2,4.3,3.7,6c8.2,9.4,16.3,18.9,25,28c6.8,7.1,21.4,8.4,29.9,3.2
			c16.6-10.2,23.4-24.9,21.5-43.3C610,274.9,590.8,259.1,570.6,261.2z M488.7,373c0,1,0.2,1.9,0,2.8c-1,4.5,1.3,7.5,5.5,8.8
			c4.1,1.2,6.7-1.5,8.7-4.5c1.5-2.1,2.9-4.2,4.2-6.4c2-3.4,4.5-3.2,6.7-0.6c3.5,4,6.7,8.2,10,12.5c3.1,4.1,7,4.8,11,1.3
			c6.9-6.1,10.5-13.7,7.8-22.3c-3.1-9.9-6.2-20-13.5-28.3c-4.4-5-8.5-10.1-10.3-16.6c-0.7-2.5-2.5-4.5-5.2-5.3
			c-1.4-0.4-3-0.9-3.9,0.9c-3.2,6.4-7.8,12-9.7,19.3c-2.5,9.3-4.6,18.9-9.2,27.7C488.9,365.7,487.8,369.2,488.7,373z"/>
	</g>
	<g>
		<path d="M479.7,494.5c5.6-8.1,1.3-17.5,4.6-26.1c6.8,3.1,10.8,7.1,10.4,14.3c-0.4,5.6,1.4,10.3,7.1,13.1c2,1,3.8,1.7,6.3,0.3
			c1-3.3-0.5-6.4-1.8-9.5c-1.5-3.7-1.8-7.3,0-11c2.5-5.4,7.4-8.5,11.8-7.6c5,1.1,8.9,7,8.1,12.8c-0.4,2.6-1.5,5.2-2,7.8
			c-0.3,2.1-0.7,4.9,2.1,5.5c2.8,0.6,6.2,1.2,8-2.2c1.6-3,3.7-5.8,3.9-9.5c0.2-4.4,3.2-7.6,6.1-10.7c2.2-2.4,4.2-1.6,5.1,1
			c1.1,3,1.7,6.2,2.6,9.4c0.9,3.1,2.3,6,5.9,6.6c3.4,0.6,5.2-2.1,6.6-4.3c5.1-8.6,9.6-17.5,14.8-26c2.9-4.7,0.6-10.7,2.2-15.9
			c1.1-3.8,1.9-7.7,2.9-11.5c1.4-5.1,4.7-8.9,9.4-11.7c3.7-2.1,7.7-4,10.5-7.3c2.7-3.2,5.1-2.1,7.3,0.7c3,3.8,3.7,8.3,4,12.7
			c1.1,19.4-1,38.4-6.6,57.1c-1.2,4-3,7.9-6.3,10.7c-15.2,13.3-28.1,28.9-43.5,42c-7.2,6.1-15.1,8.4-25.1,6.8
			c-12.7-2-25.7-2.7-38.6-3.2c-11.5-0.5-22.4-3.8-33.8-4.9c-2.1-0.2-3.7-1.6-5-3.3c-3.9-5.2-8.8-15.6-14.6-19
			c-4.9-2.9-9-0.4-12.5-4.7c-4.9-6-10.8-11.1-17.5-15.4c-7.3-4.6-9.7-10.7-8.3-19c2.2-12.7,1.1-25.4-3.5-37.7
			c-2.1-5.6-3.8-11.3-5.5-17c-1.4-4.8-1.2-9.6,0.6-14.3c2.3-6.1,6-7.3,11.7-3.7c0.8,0.5,1.7,1,2.1,1.8c7.2,13.1,18.7,24.2,21.1,39.6
			c1,6.2,0.8,12.6,1.6,18.8c1.6,12.2,9.3,20.9,18.8,28.5c1.2,0.9,3.2,0.9,4.9,1.2c1.6,0.3,3.1,0.1,4.2-1.1c1.4-1.6,0.4-3.2-0.6-4.4
			c-3-3.9-3.5-7.9-0.6-12c2.4-3.3,6.8-4.2,9.8-1.7c5,4.2,9.5,8.8,8.8,16C477,489.4,476.7,492.4,479.7,494.5z"/>
	</g>
	<g>
		<path d="M468.5,441.6c-0.1,1.6-0.2,3.2-0.4,4.8c-1.4,7.6-7.3,9.6-14,5c-2.3-1.6-3-3.6-2.4-6.1c0.9-3.8,7.8-10.1,12-10.6
			C469.9,434,467.9,438.6,468.5,441.6z"/>
	</g>
</g>
</svg>
